<svg width="70" height="90" viewBox="0 0 70 90" fill="none" xmlns="http://www.w3.org/2000/svg">
<path d="M39.0435 0H4.65229C1.45229 0 0 1.45229 0 4.66968V84.3912C0 87.6086 1.45229 89.0435 4.66968 89.0609H65.3303C68.5477 89.0609 69.9826 87.6086 70 84.3912L69.8261 25.7391L39.0435 0Z" fill="#00ADCC"/>
<path d="M63.3357 42.8634C65.4052 39.0747 66.7781 34.2827 67.0444 29.5412C67.2135 26.4979 66.5936 25.6161 65.2515 22.612C60.1332 18.5027 59.555 17.9244 56.0359 14.9934C53.4285 13.0822 50.9645 12.434 49.2228 9.85583L48.9104 9.39625C47.8807 7.883 46.7179 9.63721 46.5335 8.19682C46.3491 6.73962 45.0999 5.78215 43.8185 4.63042C42.4764 4.7313 41.4365 2.47828 41.4365 3.9523V49.2639C39.2901 47.8403 36.6468 46.966 33.7525 46.966C26.6936 46.966 16.1897 49.3915 16.1897 58.1753C16.1897 66.9591 26.6936 69.3845 33.7525 69.3845C40.8115 69.3845 46.5591 64.3572 46.5591 58.1753C46.5591 58.1753 42.712 23.903 46.5591 25.5115C50.4062 27.12 56.7019 31.217 58.4333 40.7841C58.1106 41.3053 57.8032 41.8658 57.4446 42.3142C56.5072 43.4743 56.6097 45.2454 57.6752 46.2654C58.7304 47.2967 60.3492 47.1734 61.2866 46.0132C61.973 45.1613 62.5826 44.1637 63.1666 43.1212C63.2281 43.0428 63.2846 42.9587 63.3357 42.8634Z" fill="#0096B0"/>
<path d="M39.0435 0L38.9565 21.6612C38.9565 21.6612 39.0435 25.7391 43.0345 25.7391H69.8261L39.0435 0Z" fill="#4ED9F2"/>
<path d="M36.0787 64.7406C37.0602 62.9838 37.7112 60.7618 37.8375 58.5632C37.9177 57.152 37.6238 55.6706 36.9873 54.2777C35.9888 52.0894 34.2737 50.8602 32.6169 49.6725C31.3804 48.7863 30.2119 47.9495 29.3859 46.754L29.2377 46.5409C28.7494 45.8392 28.198 45.044 28.1105 44.3761C28.0231 43.7004 27.4497 43.2196 26.823 43.2586C26.1865 43.3053 25.6933 43.8693 25.6933 44.5528V67.7085C24.6755 67.0484 23.4219 66.643 22.0494 66.643C18.7018 66.643 13.7205 67.7676 13.7205 71.8407C13.7205 75.9137 18.7018 77.0383 22.0494 77.0383C25.397 77.0383 28.1227 74.7072 28.1227 71.8407C28.1227 71.8407 26.2983 55.9487 28.1227 56.6946C29.9471 57.4405 32.9327 59.3402 33.7538 63.7764C33.6008 64.0181 33.455 64.278 33.285 64.4859C32.8404 65.0239 32.889 65.8451 33.3943 66.3181C33.8947 66.7963 34.6624 66.7391 35.107 66.2012C35.4325 65.8061 35.7216 65.3435 35.9985 64.8602C36.0277 64.8238 36.0545 64.7848 36.0787 64.7406Z" fill="white"/>
</svg>
