<svg width="24" height="24" viewBox="0 0 24 24" fill="none" xmlns="http://www.w3.org/2000/svg">
<path d="M11 16C13.7858 16 15 14.828 15 12C15 14.828 16.2058 16 19 16C16.2058 16 15 17.2058 15 20C15 17.2058 13.7858 16 11 16Z" fill="#1EC1D1" stroke="#1EC1D1" stroke-width="0.5" stroke-linejoin="round"/>
<path fill-rule="evenodd" clip-rule="evenodd" d="M2 7H22V15H19V17H22C23.1046 17 24 16.1046 24 15V7C24 5.89543 23.1046 5 22 5H2C0.895431 5 0 5.89543 0 7V15C0 16.1046 0.89543 17 2 17H11V15H2L2 7Z" fill="#1EC1D1"/>
<circle cx="18.5" cy="10.5" r="1.5" fill="#1EC1D1"/>
</svg>
