<svg width="24" height="24" viewBox="0 0 24 24" fill="none" xmlns="http://www.w3.org/2000/svg">
<path fill-rule="evenodd" clip-rule="evenodd" d="M3.48777 0.0830078H20.5116C22.3919 0.0830078 23.9163 1.60749 23.9163 3.48777V20.5116C23.9163 22.3919 22.3919 23.9163 20.5116 23.9163H3.48777C1.60749 23.9163 0.0830078 22.3919 0.0830078 20.5116V3.48777C0.0830078 1.60749 1.60749 0.0830078 3.48777 0.0830078ZM15.5577 19.794H19.6238C20.3073 19.794 20.7125 19.028 20.326 18.4628L16.8132 13.3165C16.4752 12.8211 15.7449 12.8211 15.407 13.3165L13.2756 16.4403L9.86744 11.4515C9.52952 10.957 8.80005 10.957 8.46213 11.4515L3.67333 18.4628C3.28774 19.028 3.69206 19.794 4.37641 19.794H15.5577ZM3.99967 2.99967C3.44739 2.99967 2.99967 3.44739 2.99967 3.99968V7.99967C2.99967 8.55196 3.44739 8.99967 3.99967 8.99967H18.9997C19.552 8.99967 19.9997 8.55196 19.9997 7.99967V3.99968C19.9997 3.44739 19.552 2.99967 18.9997 2.99967H3.99967Z" fill="#1EC1D1"/>
</svg>
