<svg width="24" height="24" viewBox="0 0 24 24" fill="none" xmlns="http://www.w3.org/2000/svg">
<path d="M1.37931 22H22.6207C23.3793 22 24 21.3836 24 20.6301V3.36986C24 2.61644 23.3793 2 22.6207 2H1.37931C0.62069 2 0 2.61644 0 3.36986V20.6301C0 21.3836 0.62069 22 1.37931 22ZM18.9076 4.70959C20.2234 4.70959 21.291 5.76986 21.291 7.07671C21.291 8.38356 20.2234 9.44384 18.9076 9.44384C17.5917 9.44384 16.5241 8.38356 16.5241 7.07671C16.5241 5.76986 17.5917 4.70959 18.9076 4.70959ZM2.56276 18.1507L8.68414 9.73973C9.12828 9.12877 9.85655 9.12877 10.3007 9.73973L13.92 14.7096C14.3641 15.3205 15.0924 15.3205 15.5366 14.7096L16.5214 13.3562C16.9655 12.7452 17.6938 12.7452 18.1379 13.3562L21.6276 18.1507C22.0717 18.7616 21.8152 19.2603 21.0566 19.2603H3.13379C2.37517 19.2603 2.11862 18.7616 2.56276 18.1507Z" fill="#1EC1D1"/>
</svg>
