<svg width="24" height="24" viewBox="0 0 24 24" fill="none" xmlns="http://www.w3.org/2000/svg">
<path fill-rule="evenodd" clip-rule="evenodd" d="M0 2C0 0.89543 0.895431 0 2 0H22C23.1046 0 24 0.895431 24 2V22C24 23.1046 23.1046 24 22 24H2C0.89543 24 0 23.1046 0 22V2ZM10.4648 11.0933C10.5088 10.8333 10.5888 10.6013 10.7048 10.3974C10.8208 10.1934 10.9808 10.0294 11.1768 9.9054C11.3647 9.78941 11.6007 9.72541 11.8927 9.72141C12.0847 9.72541 12.2607 9.75741 12.4126 9.8254C12.5766 9.8974 12.7126 9.99339 12.8286 10.1134C12.9446 10.2334 13.0326 10.3774 13.0966 10.5373C13.1606 10.6973 13.1966 10.8693 13.2046 11.0493H14.6364C14.6244 10.6733 14.5485 10.3294 14.4165 10.0174C14.2845 9.70541 14.0925 9.43744 13.8525 9.20946C13.6125 8.98148 13.3246 8.80949 12.9886 8.68551C12.6526 8.56152 12.2807 8.49752 11.8727 8.49752C11.3527 8.49752 10.9008 8.58552 10.5168 8.7655C10.1328 8.94548 9.81287 9.18946 9.5569 9.50143C9.30092 9.81341 9.10893 10.1734 8.98495 10.5853C8.86096 10.9973 8.80096 11.4333 8.80096 11.8932V12.1132C8.80096 12.5772 8.86496 13.0131 8.98895 13.4251C9.11293 13.837 9.30492 14.197 9.56089 14.505C9.81687 14.813 10.1368 15.0569 10.5248 15.2369C10.9128 15.4169 11.3647 15.5049 11.8847 15.5049C12.2607 15.5049 12.6126 15.4449 12.9406 15.3209C13.2686 15.1969 13.5565 15.0289 13.8045 14.813C14.0525 14.597 14.2525 14.349 14.3965 14.061C14.5405 13.7731 14.6244 13.4691 14.6364 13.1411H13.2046C13.1966 13.3091 13.1566 13.4611 13.0846 13.6051C13.0126 13.7491 12.9166 13.869 12.7966 13.969C12.6766 14.069 12.5366 14.149 12.3766 14.205C12.2247 14.257 12.0647 14.285 11.8927 14.285C11.6047 14.277 11.3687 14.217 11.1768 14.097C10.9768 13.969 10.8168 13.8051 10.7008 13.6011C10.5848 13.3971 10.5048 13.1651 10.4608 12.9011C10.4168 12.6372 10.4008 12.3812 10.4008 12.1132V11.8932C10.4008 11.6212 10.4208 11.3533 10.4648 11.0933ZM4.00142 12.0007C4.00142 7.5811 7.5811 4.00142 12.0007 4.00142C16.4203 4.00142 20 7.5811 20 12.0007C20 16.4203 16.4203 20 12.0007 20C7.5811 20 4.00142 16.4203 4.00142 12.0007ZM5.60128 12.0007C5.60128 15.5284 8.47302 18.4001 12.0007 18.4001C15.5284 18.4001 18.4001 15.5284 18.4001 12.0007C18.4001 8.47302 15.5284 5.60128 12.0007 5.60128C8.47302 5.60128 5.60128 8.47302 5.60128 12.0007Z" fill="#1EC1D1"/>
</svg>
