<svg width="24" height="24" viewBox="0 0 24 24" fill="none" xmlns="http://www.w3.org/2000/svg">
<path fill-rule="evenodd" clip-rule="evenodd" d="M4.55757 10.303C8.20431 10.303 11.1606 7.34678 11.1606 3.70004C11.1606 3.5848 11.1576 3.47024 11.1518 3.35645H22.6749C23.4041 3.35645 24.0007 3.94897 24.0007 4.67317V21.2639C24.0007 21.9881 23.4041 22.5806 22.6749 22.5806H2.25745C1.52825 22.5806 0.931641 21.9881 0.931641 21.2639V9.21929C1.97237 9.9044 3.21842 10.303 4.55757 10.303ZM21.3968 8.23623C21.3968 6.98007 20.3706 5.96093 19.1058 5.96093C17.841 5.96093 16.8148 6.98007 16.8148 8.23623C16.8148 9.49238 17.841 10.5115 19.1058 10.5115C20.3706 10.5115 21.3968 9.49238 21.3968 8.23623ZM9.27892 10.7959L3.39499 18.8806C2.96808 19.4679 3.21468 19.9472 3.94387 19.9472H21.1714C21.9006 19.9472 22.1472 19.4679 21.7203 18.8806L18.366 14.2721C17.9391 13.6848 17.2391 13.6848 16.8121 14.2721L15.8655 15.573C15.4386 16.1603 14.7386 16.1603 14.3117 15.573L10.8328 10.7959C10.4059 10.2087 9.70582 10.2087 9.27892 10.7959Z" fill="#1EC1D1"/>
<path d="M3.50696 1.95845H4.61996V2.43767H5.73297V1H0.167969V2.43767H1.28097V1.95845H2.39398V6.75067H1.28097V7.70912H4.61941V6.75067H3.50696V1.95845Z" fill="#1EC1D1"/>
<path d="M4.62012 3.23732V4.72823H5.73312V4.23127H6.28961V6.71611H5.73312V7.71005H7.95911V6.71611H7.40262V4.23125H7.95911V4.72821H9.07212V3.2373H4.62012V3.23732Z" fill="#1EC1D1"/>
</svg>
