<svg width="24" height="24" viewBox="0 0 24 24" fill="none" xmlns="http://www.w3.org/2000/svg">
<path d="M13.5755 4.94922H2.62582C1.18162 4.94922 0 6.13084 0 7.57504V16.4241C0 17.8683 1.18162 19.0499 2.62582 19.0499H13.5755C15.0197 19.0499 16.2013 17.8683 16.2013 16.4241V7.57504C16.2013 6.10458 15.0197 4.94922 13.5755 4.94922Z" fill="#1EC1D1"/>
<path d="M22.0573 6.39386C21.8998 6.42012 21.7422 6.49889 21.6109 6.57766L17.5146 8.9409V15.0328L21.6372 17.396C22.3987 17.8424 23.344 17.5799 23.7904 16.8184C23.9217 16.582 24.0004 16.3195 24.0004 16.0306V7.91683C24.0004 6.94528 23.0814 6.15753 22.0573 6.39386Z" fill="#1EC1D1"/>
</svg>
