<svg width="24" height="24" viewBox="0 0 24 24" fill="none" xmlns="http://www.w3.org/2000/svg">
<path fill-rule="evenodd" clip-rule="evenodd" d="M11.2594 3.69099C11.7078 3.87673 12.0002 4.31429 12.0002 4.79965V19.1996C12.0002 19.685 11.7078 20.1225 11.2594 20.3083C10.811 20.494 10.2949 20.3913 9.95166 20.0481L5.50314 15.5996H2.4002C1.73746 15.5996 1.2002 15.0624 1.2002 14.3996V9.59965C1.2002 8.9369 1.73746 8.39965 2.4002 8.39965H5.50314L9.95166 3.95111C10.2949 3.60791 10.811 3.50525 11.2594 3.69099Z" fill="#1EC1D1"/>
<path fill-rule="evenodd" clip-rule="evenodd" d="M17.5883 3.51455C18.057 3.04593 18.8167 3.04593 19.2855 3.51455C21.4557 5.68481 22.8001 8.68646 22.8001 11.9998C22.8001 15.3132 21.4557 18.3149 19.2855 20.4851C18.8167 20.9537 18.057 20.9537 17.5883 20.4851C17.1197 20.0165 17.1197 19.2567 17.5883 18.7881C19.327 17.0495 20.4001 14.6512 20.4001 11.9998C20.4001 9.34853 19.327 6.95018 17.5883 5.21161C17.1197 4.74298 17.1197 3.98318 17.5883 3.51455ZM14.1942 6.90867C14.6628 6.44003 15.4227 6.44003 15.8913 6.90867C16.5223 7.53973 17.0373 8.28814 17.4005 9.11939C17.7865 10.003 18.0001 10.9781 18.0001 11.9998C18.0001 13.9877 17.1929 15.7894 15.8913 17.091C15.4227 17.5596 14.6628 17.5596 14.1942 17.091C13.7256 16.6224 13.7256 15.8626 14.1942 15.394C15.0642 14.524 15.6001 13.3257 15.6001 11.9998C15.6001 11.315 15.4575 10.6666 15.2013 10.0803C14.9597 9.52739 14.6164 9.02782 14.1942 8.60572C13.7256 8.1371 13.7256 7.37729 14.1942 6.90867Z" fill="#1EC1D1"/>
</svg>
