<svg width="130" height="61" viewBox="0 0 130 61" fill="none" xmlns="http://www.w3.org/2000/svg">
<path d="M26.2963 19.9784C25.9105 19.9784 25.6021 20.0678 25.3817 20.2502C24.6941 20.818 24.9093 22.2619 25.9879 24.3159C28.4793 29.0622 34.8509 35.7093 40.1905 39.1334C42.9784 40.9211 45.0544 41.5515 45.8877 40.8634C46.5746 40.2962 46.3594 38.8516 45.2814 36.7977C42.7888 32.0519 36.4171 25.4043 31.0775 21.9802C29.0304 20.6672 27.3652 19.9784 26.2963 19.9784ZM44.9815 41.2338C43.8792 41.2338 42.1917 40.5419 40.1295 39.219C34.7768 35.7862 28.3887 29.1218 25.8895 24.3624C24.7872 22.2619 24.5806 20.7745 25.3095 20.172C26.1828 19.4503 28.3074 20.0783 31.1392 21.8946C36.4926 25.3273 42.88 31.9917 45.3792 36.7518C46.4821 38.8516 46.6881 40.3397 45.9598 40.9416C45.7223 41.1376 45.3929 41.2338 44.9815 41.2338Z" fill="#FFDE59"/>
<path d="M26.215 19.5266C25.8344 19.5266 25.5267 19.6135 25.3003 19.791C24.5884 20.3488 24.7479 21.7891 25.7498 23.8461C28.1177 28.7092 34.4953 35.6621 39.9668 39.3462C42.8806 41.3083 45.0681 42.0281 45.9684 41.3226C46.6809 40.7647 46.5208 39.3251 45.5189 37.2674C43.1509 32.405 36.7727 25.4514 31.3019 21.7674C29.1216 20.2992 27.3474 19.5266 26.215 19.5266ZM45.0636 41.6856C43.897 41.6856 42.0992 40.9093 39.9031 39.4312C34.4192 35.7378 28.0252 28.7656 25.65 23.8896C24.3371 21.1928 24.6973 20.1292 25.2301 19.7109C26.173 18.9738 28.4084 19.6923 31.3656 21.683C36.8501 25.3757 43.2441 32.3479 45.6186 37.2246C46.9315 39.9208 46.572 40.985 46.0386 41.4026C45.7958 41.5925 45.4677 41.6856 45.0636 41.6856Z" fill="#FFDE59"/>
<path d="M26.1553 19.0712C25.7793 19.0712 25.4709 19.1556 25.2386 19.3281C24.5012 19.8754 24.6029 21.3088 25.5247 23.3652C27.7536 28.3381 34.1207 35.5976 39.7161 39.5479C42.7553 41.6924 45.0557 42.5084 46.03 41.7849C46.7675 41.2382 46.6658 39.8048 45.744 37.749C43.5144 32.7755 37.1487 25.516 31.5526 21.5657C29.2397 19.9337 27.354 19.0712 26.1553 19.0712ZM45.1233 42.1417C43.8904 42.1417 41.9791 41.2748 39.6505 39.631C34.0419 35.6714 27.6591 28.3933 25.4237 23.4055C24.2157 20.71 24.6193 19.6563 25.1711 19.2468C26.1874 18.4929 28.537 19.3082 31.6182 21.4832C37.2274 25.4421 43.6096 32.7209 45.845 37.7086C47.0536 40.4036 46.6494 41.4578 46.0976 41.8668C45.8496 42.0511 45.5222 42.1417 45.1233 42.1417Z" fill="#FFDE59"/>
<path d="M26.1185 18.6132C25.7458 18.6132 25.4368 18.6958 25.198 18.8633C24.4342 19.3988 24.4756 20.8229 25.3141 22.8738C27.3894 27.9503 33.7257 35.5151 39.4379 39.7365C42.5998 42.0734 45.0183 42.9899 46.0707 42.2502C46.8344 41.7147 46.7931 40.2906 45.9552 38.2404C43.8799 33.1639 37.5437 25.5991 31.8314 21.3771C29.3867 19.5713 27.3868 18.6132 26.1185 18.6132ZM45.1613 42.5996C43.8576 42.5996 41.8321 41.6372 39.3703 39.8178C33.6443 35.5871 27.2936 28.0024 25.2111 22.9104C24.3417 20.7826 24.3142 19.3541 25.1324 18.7802C26.2287 18.0107 28.6945 18.9278 31.8983 21.2951C37.6244 25.5271 43.9757 33.1118 46.0569 38.2032C46.9276 40.331 46.9545 41.7594 46.1363 42.334C45.8817 42.5121 45.5543 42.5996 45.1613 42.5996Z" fill="#FFDE59"/>
<path d="M26.0824 18.1621C25.7209 18.1621 25.4171 18.2397 25.1796 18.3967C24.3883 18.9198 24.3667 20.3315 25.1186 22.3724C27.0253 27.5444 33.311 35.4133 39.1315 39.9109C42.3656 42.411 44.9671 43.4596 46.0897 42.7175C46.881 42.1938 46.902 40.7821 46.1501 38.7418C44.244 33.5691 37.9583 25.7015 32.1378 21.2027C29.5875 19.2313 27.4314 18.1621 26.0824 18.1621ZM45.1751 43.0588C43.7966 43.0588 41.6543 41.9952 39.0619 39.9915C33.2283 35.4828 26.9275 27.5941 25.0156 22.4065C24.2348 20.288 24.2702 18.872 25.1166 18.3117C26.2989 17.5292 28.8834 18.5537 32.2074 21.122C38.041 25.6314 44.3418 33.5201 46.2538 38.7077C47.0346 40.8261 46.9998 42.2416 46.1521 42.8019C45.8922 42.9744 45.5635 43.0588 45.1751 43.0588Z" fill="#FFDE59"/>
<path d="M26.0916 17.7029C25.7334 17.7029 25.4289 17.7768 25.1848 17.9288C24.3529 18.4463 24.2689 19.8065 24.9414 21.8623C26.6618 27.1219 32.876 35.2898 38.7949 40.0703C42.1451 42.7764 44.8707 43.9405 46.0838 43.1847C46.9158 42.6672 46.9998 41.307 46.3279 39.2519C44.6075 33.9923 38.392 25.8243 32.4738 21.0432C29.7968 18.8813 27.518 17.7029 26.0916 17.7029ZM45.1646 43.5186C43.7073 43.5186 41.4457 42.3477 38.7234 40.1491C32.792 35.3581 26.5621 27.1678 24.8364 21.8927C24.1482 19.7885 24.2479 18.388 25.1245 17.8425C26.4013 17.0483 29.1052 18.1863 32.5446 20.965C38.4767 25.7561 44.7066 33.9458 46.4329 39.2208C47.1212 41.3257 47.0208 42.7256 46.1442 43.2716C45.8778 43.4373 45.5491 43.5186 45.1646 43.5186Z" fill="#FFDE59"/>
<path d="M26.1264 17.2444C25.7714 17.2444 25.4657 17.3157 25.2157 17.4616C24.3529 17.9648 24.2033 19.307 24.7826 21.3435C26.3009 26.6813 32.4219 35.1452 38.4281 40.2124C41.8899 43.1326 44.7394 44.419 46.053 43.652C46.9158 43.1494 47.0661 41.8066 46.486 39.77C44.9684 34.4323 38.8467 25.9683 32.8405 20.9011C30.0382 18.5369 27.6368 17.2444 26.1264 17.2444ZM45.1278 43.9778C43.5859 43.9778 41.2042 42.6933 38.3553 40.29C32.3353 35.2116 26.1992 26.7247 24.677 21.3709C24.0832 19.2853 24.2499 17.9034 25.1579 17.3734C26.5358 16.5699 29.3624 17.8277 32.9134 20.8235C38.9327 25.9019 45.0695 34.3888 46.5923 39.7427C47.1855 41.8283 47.0188 43.2108 46.1107 43.7401C45.8384 43.8996 45.5084 43.9778 45.1278 43.9778Z" fill="#FFDE59"/>
<path d="M26.1874 16.7877C25.8364 16.7877 25.5293 16.8559 25.2734 16.9955C24.3778 17.4833 24.1606 18.805 24.6442 20.8192C25.9433 26.224 31.9482 34.9796 38.0305 40.3366C41.5972 43.4776 44.5754 44.8918 45.9953 44.118C46.8909 43.6309 47.1087 42.3092 46.6245 40.295C45.326 34.8902 39.3211 26.1346 33.2382 20.777C30.3145 18.2025 27.7864 16.7877 26.1874 16.7877ZM45.0931 44.4264C43.4567 44.4264 40.8991 43.0042 37.9557 40.4123C31.8596 35.0435 25.8403 26.2637 24.5372 20.8422C24.0419 18.7789 24.2774 17.4181 25.219 16.9062C26.6828 16.1082 29.7095 17.5273 33.3136 20.7013C39.409 26.0707 45.429 34.8499 46.7314 40.272C47.2268 42.3353 46.9919 43.6954 46.0504 44.208C45.7814 44.3544 45.4605 44.4264 45.0931 44.4264Z" fill="#FFDE59"/>
<path d="M26.276 16.3347C25.9282 16.3347 25.6212 16.3998 25.3594 16.532C24.4303 17.0017 24.1429 18.3005 24.5287 20.288C25.5897 25.7493 31.4542 34.7897 37.6008 40.4408C41.2659 43.8102 44.3713 45.3591 45.9093 44.5822C46.839 44.1118 47.1264 42.8131 46.74 40.8261C45.679 35.3643 39.8145 26.3239 33.6686 20.6734C30.6274 17.8767 27.9701 16.3347 26.276 16.3347ZM45.0045 44.8794C43.2717 44.8794 40.5855 43.3293 37.524 40.5146C31.3636 34.8511 25.486 25.7859 24.4205 20.306C24.0255 18.2707 24.3319 16.9335 25.3082 16.4408C26.8895 15.6416 30.0435 17.196 33.7453 20.5989C39.9051 26.2624 45.7833 35.3277 46.8476 40.8075C47.2439 42.8435 46.9368 44.1801 45.9605 44.6734C45.6869 44.8112 45.366 44.8794 45.0045 44.8794Z" fill="#FFDE59"/>
<path d="M26.3921 15.8867C26.0496 15.8867 25.7432 15.9481 25.4768 16.0722C24.5103 16.5221 24.1508 17.7948 24.4369 19.7519C25.2426 25.2572 30.9404 34.5756 37.1375 40.5233C40.8939 44.1279 44.1292 45.8176 45.7919 45.042C46.759 44.5915 47.1185 43.3188 46.8318 41.3623C46.0254 35.8564 40.3283 26.538 34.1318 20.5909C30.9765 17.5633 28.1893 15.8867 26.3921 15.8867ZM44.8877 45.328C43.0519 45.328 40.2338 43.6427 37.0594 40.5959C30.8479 34.6352 25.1369 25.2901 24.3286 19.7656C24.0347 17.7606 24.4152 16.4513 25.4283 15.9791C27.1355 15.1836 30.4188 16.8801 34.2099 20.5176C40.4208 26.479 46.1317 35.8235 46.9401 41.348C47.234 43.3535 46.8535 44.6628 45.8411 45.1351C45.5635 45.2641 45.244 45.328 44.8877 45.328Z" fill="#FFDE59"/>
<path d="M26.5371 15.4442C26.2012 15.4442 25.8961 15.5013 25.6264 15.6161C24.6206 16.0449 24.1862 17.289 24.3706 19.2114C24.9034 24.7502 30.407 34.3367 36.6408 40.5829C40.4779 44.4277 43.8432 46.2644 45.6423 45.4974C46.6488 45.068 47.0825 43.8251 46.8981 41.9021C46.3653 36.364 40.8617 26.7769 34.6285 20.5313C31.3662 17.2624 28.4451 15.4442 26.5371 15.4442ZM44.7414 45.7699C42.7953 45.7699 39.8434 43.9424 36.5608 40.6536C30.3131 34.3938 24.7964 24.7788 24.2617 19.2214C24.0727 17.2499 24.5287 15.971 25.5811 15.5224C27.4262 14.735 30.8367 16.5816 34.7079 20.4599C40.9555 26.7204 46.4736 36.3348 47.007 41.8922C47.196 43.8642 46.74 45.1431 45.6869 45.5918C45.4074 45.7115 45.0905 45.7699 44.7414 45.7699Z" fill="#FFDE59"/>
<path d="M26.7117 15.0111C26.3836 15.0111 26.0831 15.062 25.8114 15.1668C24.7636 15.5721 24.2518 16.7833 24.3332 18.6697C24.572 24.2265 29.8552 34.0717 36.1094 40.6176C40.0166 44.7063 43.5112 46.6988 45.4572 45.9467C46.5057 45.5421 47.0168 44.3309 46.9361 42.4438C46.6967 36.8877 41.4135 27.0418 35.1593 20.4965C31.7966 16.9769 28.7391 15.0111 26.7117 15.0111ZM44.5662 46.2048C42.5007 46.2048 39.4117 44.2285 36.0287 40.6871C29.7594 34.1263 24.4631 24.2513 24.2236 18.6741C24.1403 16.7399 24.675 15.4939 25.7701 15.0713C27.7615 14.3012 31.3013 16.3043 35.2407 20.4264C41.51 26.9878 46.8049 36.8629 47.0451 42.4401C47.1284 44.3743 46.5936 45.6203 45.4986 46.0429C45.2177 46.1515 44.9054 46.2048 44.5662 46.2048Z" fill="#FFDE59"/>
<path d="M26.9157 14.5854C26.5988 14.5854 26.3042 14.6313 26.0345 14.7244C24.9401 15.1023 24.3483 16.2788 24.3247 18.1268C24.2518 23.6866 29.2837 33.7801 35.5431 40.6263C39.5068 44.9619 43.1299 47.117 45.2341 46.3898C46.3286 46.0112 46.9197 44.8347 46.9447 42.9868C47.0175 37.4269 41.985 27.3335 35.7262 20.4872C32.2697 16.7076 29.0731 14.5854 26.9157 14.5854ZM44.3622 46.6305C42.1661 46.6305 38.9373 44.4972 35.4605 40.694C29.1866 33.831 24.1416 23.7077 24.2144 18.1255C24.24 16.231 24.8555 15.021 25.9965 14.627C28.1466 13.8842 31.8137 16.0505 35.8089 20.4202C42.0828 27.282 47.1271 37.4064 47.0536 42.988C47.0287 44.8831 46.4126 46.0925 45.2715 46.4872C44.9933 46.5834 44.6889 46.6305 44.3622 46.6305Z" fill="#FFDE59"/>
<path d="M27.1171 14.1759C26.8252 14.1759 26.5516 14.2137 26.2983 14.2907C25.154 14.6382 24.4795 15.7774 24.347 17.5844C23.9421 23.1325 28.6945 33.4605 34.9408 40.6071C38.8874 45.122 42.7304 47.5036 44.9704 46.8235C46.1147 46.4754 46.7898 45.3361 46.9217 43.5298C47.3265 37.981 42.5749 27.6537 36.3279 20.5071C32.8281 16.5022 29.4083 14.1759 27.1171 14.1759ZM44.1273 47.045C41.7901 47.0457 38.4176 44.7472 34.8562 40.6729C28.5947 33.5089 23.8312 23.148 24.238 17.577C24.3732 15.7241 25.074 14.5538 26.2648 14.192C28.5842 13.4865 32.376 15.8234 36.4125 20.4413C42.6739 27.6046 47.4374 37.9655 47.0306 43.5366C46.8955 45.3895 46.1947 46.5598 45.0045 46.9222C44.7315 47.0047 44.4389 47.045 44.1273 47.045Z" fill="#FFDE59"/>
<path d="M27.3816 13.7725C27.1086 13.7725 26.8494 13.8036 26.6067 13.8675C25.4073 14.1808 24.6455 15.2792 24.4034 17.0439C23.6469 22.5635 28.0869 33.1118 34.3024 40.5575C38.2739 45.3156 42.2429 47.879 44.6627 47.2467C45.8614 46.9327 46.6238 45.8344 46.8653 44.0702C47.6218 38.5501 43.1811 28.0018 36.9669 20.5567C33.3943 16.2763 29.823 13.7725 27.3816 13.7725ZM43.8956 47.4434C41.4148 47.4434 37.8101 44.9266 34.2158 40.6214C27.9859 33.1571 23.5347 22.574 24.2945 17.0303C24.5431 15.2215 25.3325 14.0933 26.5771 13.7669C29.0396 13.1235 33.0531 15.7005 37.0529 20.4922C43.2835 27.9565 47.734 38.5395 46.9742 44.0833C46.7262 45.8921 45.9369 47.0208 44.6915 47.346C44.4415 47.4118 44.1758 47.4434 43.8956 47.4434Z" fill="#FFDE59"/>
<path d="M27.6748 13.3822C27.4268 13.3822 27.19 13.407 26.9636 13.4561C25.7038 13.7303 24.8496 14.7852 24.4953 16.5072C23.3661 21.9814 27.4623 32.7339 33.6266 40.4768C37.6053 45.4745 41.6976 48.2259 44.3057 47.6575C45.5655 47.3832 46.4185 46.3283 46.7741 44.607C47.9026 39.1327 43.8064 28.3803 37.6421 20.6374C34.0091 16.0734 30.281 13.3822 27.6748 13.3822ZM43.6004 47.8343C40.9555 47.8343 37.1933 45.1289 33.5387 40.5388C27.3593 32.7761 23.2532 21.9864 24.387 16.4867C24.7511 14.7226 25.6336 13.6397 26.9387 13.3549C29.5894 12.7772 33.7243 15.5441 37.73 20.5753C43.9101 28.3375 48.0155 39.1278 46.881 44.6269C46.5175 46.3916 45.635 47.4744 44.33 47.7586C44.0977 47.8089 43.8543 47.8343 43.6004 47.8343Z" fill="#FFDE59"/>
<path d="M27.9983 13.0074C27.7831 13.0074 27.5751 13.0242 27.3737 13.0595C26.0463 13.2891 25.0956 14.2975 24.6239 15.9754C23.1023 21.3864 26.8212 32.3262 32.9134 40.362C36.879 45.593 41.0887 48.5424 43.895 48.0546C45.2223 47.8244 46.1731 46.8161 46.6448 45.1382C48.1664 39.7278 44.4474 28.7886 38.3553 20.7516C34.6744 15.8953 30.7836 13.0074 27.9983 13.0074ZM43.2756 48.2091C40.4516 48.2091 36.5267 45.3063 32.8241 40.4228C26.7156 32.3647 22.9894 21.3851 24.5176 15.9493C25.0011 14.2292 25.982 13.1948 27.354 12.9578C30.2055 12.4638 34.454 15.4275 38.4445 20.6908C44.5537 28.7495 48.2799 39.7284 46.7511 45.1649C46.2675 46.8843 45.2866 47.9187 43.9147 48.1564C43.7093 48.1918 43.4954 48.2091 43.2756 48.2091Z" fill="#FFDE59"/>
<path d="M28.3507 12.6488C28.1774 12.6488 28.0088 12.6587 27.8428 12.6798C26.4407 12.8585 25.3856 13.8166 24.7918 15.4517C22.8576 20.7783 26.1638 31.8863 32.1628 40.2131C36.0923 45.6675 40.4083 48.8191 43.4259 48.4338C44.828 48.2557 45.8837 47.2976 46.4775 45.6625C48.4118 40.3353 45.1049 29.2279 39.1059 20.9005C35.3916 15.7452 31.3328 12.6488 28.3507 12.6488ZM42.9219 48.569C39.9011 48.569 35.8069 45.4559 32.0722 40.2714C26.0562 31.921 22.744 20.772 24.6881 15.4175C25.2957 13.7434 26.3823 12.7611 27.8284 12.5774C30.8879 12.1883 35.2433 15.3555 39.1965 20.8422C45.2125 29.1932 48.5253 40.3421 46.5805 45.696C45.9723 47.3702 44.887 48.3531 43.4403 48.5368C43.2717 48.5579 43.0984 48.569 42.9219 48.569Z" fill="#FFDE59"/>
<path d="M28.7312 12.3069C28.6118 12.3069 28.4937 12.3118 28.3782 12.3211C26.8908 12.4396 25.7229 13.3444 25.0011 14.9366C22.6325 20.1602 25.4913 31.4147 31.3741 40.0263C35.2433 45.6917 39.6525 49.0518 42.8911 48.7924C44.3786 48.6739 45.5458 47.7698 46.2682 46.1775C48.6362 40.954 45.7774 29.6983 39.8946 21.0873C36.1645 15.6254 31.9279 12.3069 28.7312 12.3069ZM42.5401 48.9103C39.3041 48.9103 35.0333 45.575 31.2816 40.0828C25.3817 31.4457 22.519 20.1466 24.9001 14.8957C25.6389 13.2662 26.8389 12.3404 28.3684 12.2175C31.6444 11.9563 36.0949 15.3338 39.9871 21.0308C45.887 29.6679 48.7497 40.967 46.3686 46.2179C45.6298 47.8474 44.4304 48.7738 42.9003 48.8954C42.7822 48.9054 42.6615 48.9103 42.5401 48.9103Z" fill="#FFDE59"/>
<path d="M29.138 11.9848C29.0862 11.9848 29.0363 11.986 28.9851 11.9873C27.4026 12.0369 26.112 12.8827 25.2537 14.4328C22.4304 19.531 24.8049 30.9114 30.5467 39.8017C34.2755 45.575 38.6965 49.1288 42.1307 49.1288C42.1825 49.1288 42.233 49.1281 42.2835 49.1263C43.8661 49.0772 45.1561 48.2315 46.0156 46.6814C48.8383 41.5826 46.4637 30.2021 40.722 21.3125C36.9932 15.5392 32.5715 11.9848 29.138 11.9848ZM42.132 49.2324C38.6591 49.233 34.2027 45.6606 30.4529 39.8556C24.6934 30.9375 22.3176 19.5118 25.1566 14.385C26.0345 12.7989 27.3573 11.9345 28.9812 11.8837C29.033 11.8818 29.0855 11.8812 29.1374 11.8812C32.6096 11.8812 37.0667 15.4542 40.8158 21.2585C46.5753 30.1761 48.9518 41.6024 46.112 46.7292C45.2341 48.3146 43.912 49.179 42.2875 49.2299C42.2356 49.2318 42.1838 49.2324 42.132 49.2324Z" fill="#FFDE59"/>
<path d="M29.573 11.6832C27.9262 11.6832 26.5378 12.4626 25.5516 13.9426C22.2526 18.8931 24.1055 30.374 29.6819 39.5361C33.3536 45.5694 37.919 49.3602 41.5966 49.4297C41.6294 49.4303 41.6622 49.431 41.6957 49.431C43.3425 49.431 44.7309 48.651 45.7177 47.171C49.0161 42.2205 47.1638 30.7395 41.5874 21.5781C37.9157 15.5448 33.3497 11.7533 29.6728 11.6838C29.6393 11.6832 29.6058 11.6832 29.573 11.6832ZM41.6963 49.5346C41.6622 49.5346 41.6281 49.5346 41.594 49.5333C37.8783 49.4632 33.2775 45.652 29.5868 39.5876C23.9927 30.3964 22.1404 18.867 25.4591 13.8873C26.4859 12.3453 27.9386 11.5498 29.6754 11.5802C33.3897 11.6503 37.9912 15.4616 41.6825 21.5266C47.2767 30.7178 49.1283 42.2471 45.8102 47.2269C44.8031 48.7378 43.3819 49.5346 41.6963 49.5346Z" fill="#FFDE59"/>
<path d="M30.0376 11.4028C28.3992 11.4028 26.9741 12.1108 25.8967 13.4672C22.1017 18.2471 23.3936 29.8032 28.7778 39.2277C32.3104 45.4106 36.9249 49.4223 40.8197 49.6965C42.6313 49.8256 44.2053 49.1151 45.3719 47.6463C49.1676 42.8664 47.8757 31.3104 42.4909 21.8859C38.9583 15.703 34.3444 11.6919 30.449 11.417C30.3105 11.4071 30.1727 11.4028 30.0376 11.4028ZM41.2331 49.8144C41.094 49.8144 40.9529 49.8101 40.8112 49.8002C36.8797 49.5228 32.231 45.4906 28.6813 39.2773C23.2788 29.8205 21.9908 18.2142 25.8095 13.4052C26.9997 11.9066 28.6079 11.1837 30.4575 11.314C34.3897 11.5908 39.0377 15.6229 42.5873 21.8369C47.9899 31.2937 49.2785 42.8993 45.4599 47.709C44.3608 49.0921 42.9062 49.8144 41.2331 49.8144Z" fill="#FFDE59"/>
<path d="M30.5218 11.1446C28.8979 11.1446 27.4478 11.7806 26.2924 13.0099C21.9783 17.595 22.6712 29.1988 27.8363 38.8752C31.2009 45.181 35.841 49.4123 39.9458 49.9187C41.8931 50.1594 43.6332 49.5315 44.9769 48.1043C49.2903 43.5186 48.5975 31.9154 43.4324 22.2383C40.0678 15.9332 35.4277 11.7018 31.3236 11.1955C31.0526 11.1614 30.7842 11.1446 30.5218 11.1446ZM40.7489 50.0726C40.4805 50.0726 40.2082 50.0558 39.9313 50.0217C35.7912 49.5104 31.1195 45.2573 27.7378 38.9224C22.5551 29.2106 21.8694 17.5552 26.2104 12.941C27.5784 11.4865 29.3506 10.8474 31.338 11.0925C35.4775 11.6032 40.1498 15.8563 43.5308 22.1918C48.7142 31.9036 49.3992 43.5589 45.059 48.1725C43.8812 49.4247 42.4036 50.0726 40.7489 50.0726Z" fill="#FFDE59"/>
<path d="M31.0231 10.9113C29.4221 10.9113 27.9596 11.4747 26.7386 12.5731C21.8865 16.9378 21.939 28.5584 26.856 38.4768C30.0271 44.8738 34.6665 49.3224 38.9648 50.0868C41.0658 50.461 42.9902 49.9261 44.5301 48.5411C49.3822 44.1757 49.3297 32.5558 44.4127 22.6367C41.2416 16.2404 36.6021 11.7918 32.3045 11.0267C31.8688 10.9491 31.441 10.9113 31.0231 10.9113ZM40.2482 50.3065C39.8224 50.3065 39.3874 50.2674 38.9452 50.1886C34.6127 49.4179 29.9424 44.947 26.7569 38.5209C21.8222 28.5652 21.7795 16.8907 26.6624 12.4974C28.2293 11.0881 30.1878 10.5446 32.3242 10.9249C36.6566 11.6963 41.3262 16.1671 44.5117 22.5933C49.4471 32.549 49.4891 44.2229 44.6056 48.6162C43.3642 49.7331 41.8761 50.3065 40.2482 50.3065Z" fill="#FFDE59"/>
<path d="M31.5355 10.7016C29.968 10.7016 28.5075 11.1924 27.2392 12.1579C21.8281 16.2763 21.1995 27.8826 25.8383 38.0307C28.7896 44.4854 33.3996 49.1449 37.8698 50.1911C40.1406 50.7223 42.2704 50.2947 44.0301 48.9556C49.4412 44.8372 50.0692 33.2309 45.4303 23.0835C42.4791 16.6282 37.8691 11.9687 33.3989 10.9231C32.7657 10.7748 32.1424 10.7016 31.5355 10.7016ZM39.7345 50.5162C39.1184 50.5162 38.4865 50.4418 37.8435 50.291C33.3405 49.238 28.7023 44.5555 25.738 38.0716C21.0808 27.8845 21.7231 16.223 27.1703 12.0773C28.9576 10.7171 31.1202 10.2833 33.4252 10.8219C37.9275 11.8756 42.5663 16.5581 45.5307 23.0425C50.1879 33.2297 49.5456 44.8906 44.0984 49.0369C42.8104 50.0167 41.3256 50.5162 39.7345 50.5162Z" fill="#FFDE59"/>
<path d="M32.0578 10.516C30.5349 10.516 29.0921 10.9367 27.7949 11.7689C21.8038 15.6136 20.4535 27.1721 24.784 37.5343C27.5325 44.1112 31.9699 48.8526 36.6533 50.219C39.1098 50.9345 41.468 50.6329 43.4738 49.3453C49.4649 45.4999 50.8152 33.9414 46.4847 23.5793C43.7362 17.003 39.2988 12.2609 34.6154 10.8952C33.7473 10.642 32.8904 10.516 32.0578 10.516ZM39.2122 50.7018C38.3684 50.7018 37.5004 50.5746 36.6205 50.3177C31.9056 48.9426 27.4432 44.1782 24.6823 37.5727C20.3334 27.1672 21.7021 15.5534 27.7332 11.6832C29.7679 10.377 32.1595 10.0705 34.6475 10.7965C39.3625 12.171 43.8261 16.9353 46.5871 23.5414C50.9352 33.9464 49.5666 45.5601 43.5354 49.431C42.2199 50.2755 40.7561 50.7018 39.2122 50.7018Z" fill="#FFDE59"/>
<path d="M32.582 10.3553C31.1195 10.3553 29.7108 10.7071 28.4091 11.4071C21.8183 14.9503 19.7022 26.425 23.6928 36.987C26.173 43.5515 30.5159 48.4753 35.3096 50.1582C37.9662 51.0896 40.5763 50.9345 42.8596 49.7065C49.4511 46.1633 51.5671 34.6885 47.5759 24.1272C45.0957 17.5621 40.7528 12.6382 35.9591 10.956C34.8181 10.5557 33.6843 10.3553 32.582 10.3553ZM38.6866 50.8625C37.5719 50.8625 36.4263 50.6602 35.2715 50.255C30.4483 48.5622 26.0805 43.6154 23.5898 37.0217C19.5815 26.4151 21.7198 14.8839 28.3546 11.3171C30.6674 10.0736 33.3097 9.91536 35.9978 10.8586C40.821 12.552 45.1882 17.4988 47.6795 24.0925C51.6865 34.6991 49.5488 46.2303 42.9141 49.7971C41.5946 50.5057 40.1682 50.8625 38.6866 50.8625Z" fill="#FFDE59"/>
<path d="M33.1056 10.22C31.7179 10.22 30.365 10.5049 29.0836 11.0764C21.8721 14.2882 18.949 25.6425 22.5662 36.3857C24.7603 42.903 28.9727 47.9913 33.8352 49.9956C36.7038 51.1796 39.5914 51.1932 42.1858 50.0378C49.3966 46.8254 52.3203 35.4716 48.7031 24.7279C46.509 18.2105 42.296 13.1228 37.4341 11.1173C35.9821 10.5191 34.5261 10.22 33.1056 10.22ZM38.1637 50.9978C36.7281 50.9978 35.2571 50.6956 33.7913 50.0906C28.9005 48.0745 24.6645 42.9626 22.4613 36.4173C18.8283 25.6258 21.7776 14.2156 29.0363 10.9827C31.6602 9.81359 34.5793 9.82786 37.4774 11.0224C42.3682 13.0397 46.6035 18.151 48.8074 24.6962C52.4404 35.4878 49.4911 46.898 42.2324 50.1315C40.9359 50.7086 39.5665 50.9978 38.1637 50.9978Z" fill="#FFDE59"/>
<path d="M33.6194 10.1083C32.3261 10.1083 31.0513 10.3317 29.8191 10.7791C21.9685 13.6304 18.1938 24.8234 21.4042 35.7304C23.2978 42.1652 27.3448 47.395 32.2303 49.7207C35.3194 51.1908 38.5075 51.403 41.4503 50.3351C49.3002 47.4837 53.0755 36.2907 49.8651 25.3832C47.9709 18.9489 43.9239 13.7185 39.039 11.3934C37.2432 10.5384 35.4139 10.1083 33.6194 10.1083ZM37.6493 51.1095C35.8377 51.1095 33.9921 50.6757 32.1811 49.8132C27.2687 47.4744 23.2007 42.2205 21.2979 35.7583C18.0731 24.8011 21.878 13.5516 29.7797 10.6823C32.752 9.60323 35.9709 9.81669 39.0882 11.3004C44.0006 13.6391 48.0686 18.8931 49.9707 25.3559C53.1956 36.3131 49.3907 47.5619 41.4896 50.4312C40.2443 50.8836 38.9557 51.1095 37.6493 51.1095Z" fill="#FFDE59"/>
<path d="M34.1147 10.0215C32.9377 10.0215 31.7678 10.1865 30.6182 10.5185C22.1096 12.9776 17.4399 23.9677 20.2081 35.0187C21.7914 41.3381 25.6369 46.6839 30.4955 49.3199C33.8077 51.1169 37.3193 51.5581 40.6504 50.5951C49.1584 48.1365 53.8288 37.1458 51.0606 26.0955C49.4773 19.7761 45.6318 14.4297 40.7731 11.7937C38.604 10.6165 36.3482 10.0215 34.1147 10.0215ZM37.1539 51.1963C34.9008 51.1963 32.628 50.5963 30.4404 49.4099C25.5569 46.7602 21.6916 41.389 20.1018 35.0422C17.3205 23.9398 22.0236 12.8939 30.5861 10.4198C33.9474 9.44748 37.4886 9.89302 40.8276 11.7043C45.7125 14.354 49.5771 19.7246 51.1675 26.0713C53.9488 37.1744 49.2451 48.2197 40.6819 50.6943C39.5226 51.0294 38.3409 51.1963 37.1539 51.1963Z" fill="#FFDE59"/>
<path d="M34.578 9.95693C33.5459 9.95693 32.5112 10.0705 31.4837 10.2976C22.2992 12.3323 16.69 23.0761 18.9798 34.248C20.2639 40.514 23.7847 45.8127 28.6374 48.7844C32.1687 50.9463 36.0234 51.6493 39.785 50.816C48.9695 48.7813 54.5787 38.0375 52.2888 26.8662C51.0048 20.5995 47.4847 15.3015 42.6319 12.3298C40.0652 10.758 37.3271 9.95693 34.578 9.95693ZM36.69 51.2603C33.9199 51.2609 31.1628 50.4542 28.5777 48.8712C23.7 45.8847 20.1622 40.5612 18.8722 34.2678C16.5705 23.0425 22.2172 12.2442 31.4587 10.1971C35.2498 9.35688 39.1341 10.0643 42.6917 12.2429C47.5693 15.2295 51.1065 20.5524 52.3964 26.8464C54.6975 38.0716 49.0515 48.87 39.8106 50.9171C38.7746 51.1461 37.7307 51.2603 36.69 51.2603Z" fill="#FFDE59"/>
<path d="M34.9238 9.92218C34.0865 9.92218 33.248 9.98796 32.416 10.1201C22.5374 11.6975 15.9453 22.149 17.7201 33.4183C18.6793 39.5094 21.939 44.8627 26.6638 48.1055C30.3479 50.6348 34.6764 51.6611 38.8526 50.9934C48.7307 49.4161 55.3241 38.9646 53.5486 27.6959C52.5887 21.6042 49.329 16.2509 44.6056 13.0087C41.655 10.9833 38.291 9.92218 34.9238 9.92218ZM36.3449 51.2956C32.9541 51.2956 29.5684 50.2277 26.5988 48.1899C21.8511 44.9303 18.5757 39.5522 17.6118 33.4338C15.8285 22.1093 22.4613 11.605 32.3977 10.0184C36.6028 9.34695 40.9614 10.3789 44.6692 12.9243C49.417 16.1833 52.693 21.5614 53.6575 27.6803C55.4409 39.0049 48.8081 49.5091 38.871 51.0958C38.0325 51.2298 37.1887 51.2956 36.3449 51.2956Z" fill="#FFDE59"/>
<mask id="mask0_479_7841" style="mask-type:luminance" maskUnits="userSpaceOnUse" x="16" y="9" width="40" height="43">
<path d="M16.1211 9.77636H55.0898V51.3384H16.1211V9.77636Z" fill="white"/>
</mask>
<g mask="url(#mask0_479_7841)">
<path d="M35.2649 9.89488C34.6495 9.89488 34.034 9.9259 33.4179 9.9892C22.8293 11.0751 15.2084 21.1866 16.4308 32.5273C17.0659 38.4204 20.0382 43.7972 24.5858 47.279C28.4524 50.2401 33.1634 51.6059 37.8514 51.125C48.44 50.0384 56.0603 39.9276 54.8379 28.5863C54.2028 22.6932 51.2305 17.3163 46.6829 13.8346C43.3242 11.2631 39.3283 9.89488 35.2649 9.89488ZM36.0037 51.3229C31.9148 51.3229 27.8953 49.9466 24.5169 47.3596C19.947 43.8605 16.9596 38.4582 16.3219 32.5378C15.0929 21.14 22.7572 10.9783 33.4061 9.88619C38.1224 9.40218 42.8622 10.7754 46.7518 13.7539C51.3217 17.2531 54.3091 22.656 54.9468 28.5764C56.1751 39.9735 48.5115 50.1352 37.8625 51.228C37.2432 51.2913 36.6225 51.3229 36.0037 51.3229Z" fill="#FFDE59"/>
</g>
<mask id="mask1_479_7841" style="mask-type:luminance" maskUnits="userSpaceOnUse" x="14" y="9" width="43" height="43">
<path d="M14.9453 9.77636H56.3142V51.3384H14.9453V9.77636Z" fill="white"/>
</mask>
<g mask="url(#mask1_479_7841)">
<path d="M35.5248 9.88185C35.181 9.88185 34.8365 9.89053 34.4901 9.90791C29.0094 10.1791 23.9756 12.5824 20.3157 16.6735C16.6552 20.7665 14.8082 26.0577 15.1133 31.5741C15.4197 37.0906 17.8415 42.1702 21.9344 45.8785C26.026 49.5855 31.2993 51.4768 36.7786 51.2063C48.0936 50.6453 56.7859 40.9254 56.1554 29.54C55.8496 24.0236 53.4272 18.9434 49.3349 15.2351C45.5005 11.762 40.6314 9.88185 35.5248 9.88185ZM35.7439 51.3353C30.6084 51.336 25.713 49.4452 21.8589 45.9529C17.7457 42.2267 15.3114 37.1216 15.0044 31.5797C14.6973 26.0366 16.5541 20.7193 20.2324 16.6065C23.912 12.493 28.9733 10.0773 34.4848 9.80428C39.9956 9.53063 45.2965 11.4332 49.4104 15.1606C53.523 18.8869 55.9572 23.9913 56.2643 29.5345C56.8988 40.9775 48.1598 50.7458 36.7845 51.3099C36.4374 51.3273 36.0897 51.3353 35.7439 51.3353Z" fill="#FFDE59"/>
</g>
<mask id="mask2_479_7841" style="mask-type:luminance" maskUnits="userSpaceOnUse" x="13" y="9" width="45" height="43">
<path d="M13.6291 9.6901H57.5949V51.4688H13.6291V9.6901Z" fill="white"/>
</mask>
<g mask="url(#mask2_479_7841)">
<path d="M35.6343 9.87936C23.5786 9.87936 13.7702 19.155 13.7702 30.5571C13.7702 41.9586 23.5786 51.2348 35.6343 51.2348C47.6907 51.2348 57.4985 41.9586 57.4985 30.5571C57.4985 19.155 47.6907 9.87936 35.6343 9.87936ZM35.6343 51.3384C23.5176 51.3384 13.6606 42.0157 13.6606 30.5571C13.6606 19.0979 23.5176 9.77574 35.6343 9.77574C47.7504 9.77574 57.6081 19.0979 57.6081 30.5571C57.6081 42.0157 47.7504 51.3384 35.6343 51.3384Z" fill="#FFDE59"/>
</g>
<mask id="mask3_479_7841" style="mask-type:luminance" maskUnits="userSpaceOnUse" x="20" y="15" width="32" height="31">
<path d="M20.0651 15.7849H51.2088V45.2387H20.0651V15.7849Z" fill="white"/>
</mask>
<g mask="url(#mask3_479_7841)">
<mask id="mask4_479_7841" style="mask-type:luminance" maskUnits="userSpaceOnUse" x="20" y="15" width="32" height="31">
<path d="M35.637 15.7849C27.0371 15.7849 20.0651 22.3786 20.0651 30.5118C20.0651 38.6456 27.0371 45.2387 35.637 45.2387C44.2375 45.2387 51.2088 38.6456 51.2088 30.5118C51.2088 22.3786 44.2375 15.7849 35.637 15.7849Z" fill="white"/>
</mask>
<g mask="url(#mask4_479_7841)">
<path d="M20.0651 15.7849H51.2088V45.2387H20.0651V15.7849Z" fill="#334355"/>
</g>
</g>
<path d="M40.0448 30.3268C41.2133 30.5341 42.105 30.969 42.7192 31.6324C43.3346 32.2945 43.643 33.1558 43.643 34.2162C43.643 35.5268 43.1365 36.5358 42.1234 37.2419C41.1116 37.9487 39.6098 38.3018 37.6171 38.3018H30.3288V22.8383H37.1499C38.9241 22.8383 40.3053 23.1808 41.294 23.8659C42.2822 24.551 42.7769 25.5264 42.7769 26.7923C42.7769 27.6759 42.5315 28.4199 42.042 29.0237C41.5519 29.6281 40.8859 30.0625 40.0448 30.3268ZM31.5204 23.8113V29.9743H37.1027C38.5357 29.9743 39.6367 29.7131 40.407 29.19C41.1786 28.6675 41.5644 27.8981 41.5644 26.8817C41.5644 25.8807 41.1786 25.1187 40.407 24.5956C39.6367 24.0732 38.5357 23.8113 37.1027 23.8113H31.5204ZM37.6171 37.3288C39.2036 37.3288 40.4056 37.0682 41.2232 36.5469C42.042 36.0245 42.4515 35.2178 42.4515 34.1269C42.4515 33.0366 42.042 32.2343 41.2232 31.7193C40.4056 31.203 39.2036 30.9448 37.6171 30.9448H31.5204V37.3288H37.6171Z" fill="#1BE5EE"/>
<mask id="mask5_479_7841" style="mask-type:luminance" maskUnits="userSpaceOnUse" x="29" y="23" width="4" height="7">
<path d="M29.7876 23.8201H32.5833V29.967H29.7876V23.8201Z" fill="white"/>
</mask>
<g mask="url(#mask5_479_7841)">
<path d="M29.7876 23.8201H32.5833V29.9663H29.7876V23.8201Z" fill="#334355"/>
</g>
<path d="M49.644 37.383C48.7412 36.9102 48.0339 36.2562 47.5234 35.4222C46.9998 34.5882 46.7387 33.6568 46.7387 32.6273C46.7387 31.5985 46.9998 30.6665 47.5234 29.8325C48.0339 28.9985 48.7412 28.3401 49.644 27.8567C50.5482 27.3839 51.5606 27.1469 52.6806 27.1469C53.8019 27.1469 54.8143 27.3839 55.7172 27.8567C56.62 28.3302 57.3326 28.9836 57.8561 29.8176C58.3666 30.6516 58.6225 31.5886 58.6225 32.6273C58.6225 33.6667 58.3666 34.6031 57.8561 35.4371C57.3326 36.2711 56.62 36.9251 55.7172 37.3979C54.8143 37.8714 53.8019 38.1078 52.6806 38.1078C51.5606 38.1078 50.5482 37.8664 49.644 37.383ZM55.2762 36.765C56.0492 36.353 56.6594 35.7821 57.1055 35.0523C57.5517 34.3313 57.7748 33.5228 57.7748 32.6273C57.7748 31.7325 57.5517 30.919 57.1055 30.1874C56.6594 29.4676 56.0492 28.9017 55.2762 28.4897C54.5046 28.0777 53.6392 27.8716 52.6806 27.8716C51.7233 27.8716 50.8579 28.0777 50.085 28.4897C49.3009 28.9017 48.6861 29.4676 48.2399 30.1874C47.7938 30.919 47.5707 31.7325 47.5707 32.6273C47.5707 33.5228 47.7938 34.3313 48.2399 35.0523C48.6861 35.7821 49.3009 36.353 50.085 36.765C50.8579 37.177 51.7233 37.383 52.6806 37.383C53.6392 37.383 54.5046 37.177 55.2762 36.765Z" fill="#1BE5EE"/>
<path d="M64.6295 37.383C63.7267 36.9102 63.0194 36.2562 62.5089 35.4222C61.9853 34.5882 61.7242 33.6568 61.7242 32.6273C61.7242 31.5985 61.9853 30.6665 62.5089 29.8325C63.0194 28.9985 63.7267 28.3401 64.6295 27.8567C65.5336 27.3839 66.5461 27.1469 67.6661 27.1469C68.7874 27.1469 69.7998 27.3839 70.7026 27.8567C71.6055 28.3302 72.318 28.9836 72.8416 29.8176C73.3521 30.6516 73.608 31.5886 73.608 32.6273C73.608 33.6667 73.3521 34.6031 72.8416 35.4371C72.318 36.2711 71.6055 36.9251 70.7026 37.3979C69.7998 37.8714 68.7874 38.1078 67.6661 38.1078C66.5461 38.1078 65.5336 37.8664 64.6295 37.383ZM70.2617 36.765C71.0346 36.353 71.6448 35.7821 72.091 35.0523C72.5372 34.3313 72.7602 33.5228 72.7602 32.6273C72.7602 31.7325 72.5372 30.919 72.091 30.1874C71.6448 29.4676 71.0346 28.9017 70.2617 28.4897C69.4901 28.0777 68.6247 27.8716 67.6661 27.8716C66.7088 27.8716 65.8433 28.0777 65.0704 28.4897C64.2863 28.9017 63.6716 29.4676 63.2254 30.1874C62.7792 30.919 62.5561 31.7325 62.5561 32.6273C62.5561 33.5228 62.7792 34.3313 63.2254 35.0523C63.6716 35.7821 64.2863 36.353 65.0704 36.765C65.8433 37.177 66.7088 37.383 67.6661 37.383C68.6247 37.383 69.4901 37.177 70.2617 36.765Z" fill="#1BE5EE"/>
<path d="M78.4234 37.6908C77.6623 37.4227 77.0692 37.0728 76.644 36.6409L77.0193 36.0551C77.4215 36.456 77.9654 36.7799 78.6517 37.0281C79.3269 37.285 80.0401 37.4128 80.7907 37.4128C81.8786 37.4128 82.7001 37.218 83.2551 36.827C83.8115 36.4349 84.0897 35.9254 84.0897 35.2981C84.0897 34.8153 83.9428 34.4293 83.6488 34.1414C83.3549 33.8523 82.9901 33.6301 82.5544 33.4762C82.1187 33.3223 81.5308 33.1629 80.7907 32.9972C79.9522 32.8023 79.2829 32.6118 78.783 32.4263C78.2719 32.2414 77.8421 31.9534 77.4943 31.5625C77.1335 31.1821 76.9537 30.6677 76.9537 30.0187C76.9537 29.4943 77.1007 29.0103 77.3946 28.5666C77.6886 28.1347 78.1406 27.7897 78.7515 27.5316C79.3499 27.2753 80.1005 27.1469 81.0033 27.1469C81.6345 27.1469 82.2552 27.235 82.8641 27.41C83.473 27.5837 84.0005 27.8208 84.4467 28.1199L84.137 28.7528C83.6803 28.4537 83.1797 28.2266 82.6358 28.0727C82.0807 27.9188 81.5367 27.8419 81.0033 27.8419C79.9483 27.8419 79.1484 28.0423 78.6045 28.4425C78.0599 28.8446 77.7883 29.3652 77.7883 30.0038C77.7883 30.4872 77.9353 30.8725 78.2292 31.1604C78.5231 31.4483 78.8866 31.6705 79.321 31.8256C79.7567 31.9795 80.3498 32.1446 81.1004 32.3196C81.9383 32.515 82.6075 32.7055 83.1082 32.8904C83.6081 33.076 84.0386 33.354 84.3994 33.7244C84.7472 34.1054 84.9217 34.6143 84.9217 35.2509C84.9217 35.7771 84.7747 36.2562 84.4808 36.688C84.1763 37.1199 83.7131 37.4649 83.0924 37.7231C82.473 37.98 81.7106 38.1078 80.8065 38.1078C79.9679 38.1078 79.174 37.9688 78.4234 37.6908Z" fill="#1BE5EE"/>
<path d="M91.2375 27.9337H87.1249V27.2238H96.1848V27.9337H92.0721V38.0309H91.2375V27.9337Z" fill="#1BE5EE"/>
</svg>
